<svg xmlns="http://www.w3.org/2000/svg" version="1.0" width="255" height="82" viewBox="0 0 255 82" preserveAspectRatio="xMidYMid meet" >
		<style>
			#path12, #path16, #path24, #path26, #path26-4, #path28{
			stroke: #e74c3c;
			}
			#g30{
				fill:none;
				stroke-width:5; 
				stroke-linecap:round;
				stroke-linejoin:round;
				stroke:#000;
				transform: translate(0px, 82px) scale(0.1,-0.1); 
			}
			</style>
				<defs id="defs36" />
				<!-- <sodipodi:namedview
					pagecolor="#ffffff"
					bordercolor="#666666"
					borderopacity="1"
					objecttolerance="10"
					gridtolerance="10"
					guidetolerance="10"
					inkscape:pageopacity="0"
					inkscape:pageshadow="2"
					inkscape:window-width="1366"
					inkscape:window-height="705"
					id="namedview34"
					showgrid="false"
					showguides="true"
					inkscape:guide-bbox="true"
					inkscape:zoom="2"
					inkscape:cx="152.70751"
					inkscape:cy="16.909781"
					inkscape:window-x="-8"
					inkscape:window-y="-8"
					inkscape:window-maximized="1"
					inkscape:current-layer="g30">
				<sodipodi:guide
					position="257.73779,25.75889"
					orientation="0,1"
					id="guide38"
					inkscape:locked="false" />
				<sodipodi:guide
					position="227.41536,20.109413"
					orientation="0,1"
					id="guide40"
					inkscape:locked="false" />
				<sodipodi:guide
					position="231.20562,13.476465"
					orientation="0,1"
					id="guide42"
					inkscape:locked="false" />
				<sodipodi:guide
					position="203.56833,4.6851775"
					orientation="0,1"
					id="guide44"
					inkscape:locked="false" />
				<sodipodi:guide
					position="194.8,53.999998"
					orientation="0,1"
					id="guide46"
					inkscape:locked="false" />
				<sodipodi:guide
					position="241.20353,44.376948"
					orientation="0,1"
					id="guide48"
					inkscape:locked="false" />
				<sodipodi:guide
					position="214.55815,38.005529"
					orientation="0,1"
					id="guide50"
					inkscape:locked="false" />
				<sodipodi:guide
					position="183.45764,76.755535"
					orientation="0,1"
					id="guide52"
					inkscape:locked="false" />
				<sodipodi:guide
					position="76.01569,34.428158"
					orientation="1,0"
					id="guide54"
					inkscape:locked="false" />
				<sodipodi:guide
					position="82.016928,38.005529"
					orientation="1,0"
					id="guide56"
					inkscape:locked="false" />
				<sodipodi:guide
					position="98.02023,38.005529"
					orientation="1,0"
					id="guide58"
					inkscape:locked="false" />
				<sodipodi:guide
					position="104.44261,38.005529"
					orientation="1,0"
					id="guide60"
					inkscape:locked="false" />
				<sodipodi:guide
					position="120.02477,30.953757"
					orientation="1,0"
					id="guide62"
					inkscape:locked="false" />
				<sodipodi:guide
					position="126.60508,30.848472"
					orientation="1,0"
					id="guide64"
					inkscape:locked="false" />
				<sodipodi:guide
					position="131.88403,16.229589"
					orientation="1,0"
					id="guide66"
					inkscape:locked="false" />
				<sodipodi:guide
					position="138.28653,15.447889"
					orientation="1,0"
					id="guide68"
					inkscape:locked="false" />
				<sodipodi:guide
					position="228.77766,59.036992"
					orientation="0,1"
					id="guide70"
					inkscape:locked="false" />
				<sodipodi:guide
					position="242.40158,32.08694"
					orientation="0,1"
					id="guide102"
					inkscape:locked="false" />
				</sodipodi:namedview> -->
				<!-- transform="translate(0.000000,82.000000) scale(0.100000,-0.100000)" -->
				<!-- inkscape:connector-curvature="0" sodipodi:nodetypes="scscsccsscccsss"  -->
				<g id="g30">
				<path id="path12" 
				d="m 1790,767 c 0,0 -34,-104 -76,-228 -42,-123 -77,-240 -77,-261 0,-51 37,-106 87,-129 29,-13 65,-19 123,-19 h 81 l 11,31 c 6,18 11,34 11,35 0,2 -38,4 -84,4 -98,0 -128,9 -152,45 -17,26 -16,31 61,263 43,130 80,243 82,250 2.4989,9.11957 2.4989,9.11957 2.4989,9.11957 -18.1624,0.43579 -18.1541,0.83312 -33.3128,0.83312 -20,0 -19.8076,-0.39733 -36.1861,-0.95269 z"
				/>
				<!-- inkscape:connector-curvature="0" sodipodi:nodetypes="cccccccscssccscccc" -->
				<path id="path14"
				d="M 134,637 C 45,594 -11,494 10,412 27,344 66,294 123,265 c 89,-44 179,-26 247,51 l 17.45868,27.7497 16.54132,36.3056 -31.73302,0.65142 c -17.47672,0 -17.07294,0 -41.11517,-0.83057 L 311.05262,355.94301 C 288.49264,334.52946 268.45941,317.87882 225.85625,314.83643 153.50905,309.66994 80,364.43005 80,452 c 0,87 86,151 172,128 20,-6 56.26631,-32.00001 63.26631,-40.00001 0,0 14.73369,10e-6 41.73369,10e-6 l 41.36788,-10e-6 L 380,570 c -24.26218,44.2114 -97,79 -151,85 -33.25552,2.76657 -56,0 -95,-18 z" />
				<!-- inkscape:connector-curvature="0" sodipodi:nodetypes="ccscccssscsccssssccsscssccc" -->
				<path id="path16"
				d="m 2146,585 c -50,-17 -74,-42 -91,-91 -6.773,-20.31892 -6.406,-20.25122 -15.5436,-46.02138 0,0 0.7897,-1.57069 -9.3312,-1.57069 l -51.8637,-0.46458 -7.1227,-25.6847 -10.8079,-40.76398 c 0,0 16.4475,0.50533 29.6691,0.50533 16,0 15.5233,0.0553 31.1845,-0.23627 C 2025.1838,379.68927 1962,178 1941,112 l -19.8015,-64.437824 c 40.7974,-0.710391 41.4936,-0.710391 72.4906,-0.710391 0,0 1.0995,0 46.3109,154.148215 26,86 55.1167,179.16715 55.1167,179.16715 21.0195,-0.11185 21.3871,0.0438 26.1582,0.0146 C 2136.6815,380.08731 2136.5344,380 2160,380 c 34.5464,0 34.3642,0.0553 56.4059,-0.47397 0,0 8.38,19.98096 12.5941,31.47397 6,18 11.3722,35.40793 11.3722,35.40793 0,0 -29.3722,0.0558 -64.3722,0.0558 -38.615,0 -42.2583,-0.31901 -65.6301,0.4531 0,0 4.9026,16.51849 6.6301,23.08316 9,36 47.3221,65.29508 99.2776,67.44477 44.9936,1.86163 0,0 44.9936,1.86163 0,0 0,0 18.7288,51.06354 1.2541,1.31055 -83.3038,3.92034 -134,-5.36994 z" />
		<!-- inkscape:connector-curvature="0" sodipodi:nodetypes="cccsssscsscsccscccccccccccsscssccccsssssscc" -->
				<path id="path18"
				d="m 493,520 c -42,-25 -61,-56 -66,-105 -8.05388,-44.63625 5.88314,-79.57195 7.88314,-66.57195 1.69414,3.36848 1.80054,9.87806 0.70379,16.99173 -1.17284,7.60724 -3.58795,15.9053 -2.63772,21.79164 2.04142,12.64587 16.89453,13.06503 30.28412,18.37743 25.89497,10.274 27.06937,10.45587 30.00232,1.66259 6.23699,-18.69914 6.04452,-17.50414 10.76435,-27.19614 3.2907,-9.72361 3.13355,-9.98106 6.87388,-22.85695 0,0 -14.33763,-11.98509 -22.87388,-17.19835 -28.23949,-17.24641 -31.5417,-18.22609 -45.07876,3.52642 -1.16467,2.63655 -1.82663,5.32827 -2.76151,7.30247 C 430.90009,370.38269 431,358.26637 431,351 430,344 442.7886,315.26218 464.7886,294.26218 500.7886,258.26218 512,260 563,260 c 48,0 61,4 91,30 37,33 60.52642,89.42176 53.52642,125.42176 -9.31709,57.53468 -23.4746,55.7917 -10.4746,0.7917 0.0529,-36.15816 -0.94715,-36.15816 -29.84146,-36.15816 -31.89327,0 -31.8943,-0.52888 -39.8943,32.47112 -8.15855,24.63213 -8.36994,21.314 21.94715,45.15752 l 22.78092,14.74898 14.3766,-18.85468 C 702.05285,409.63316 699,441 699,447 c 1,7 -13,27 -29,45 -17,18 -37.16965,35.83967 -40.39209,36.27128 -4.03808,-0.85314 7.55841,1.12152 -1.27641,-12.90101 -2.05905,-3.26808 3.38112,-4.58537 13.20488,-17.76805 0,0 -13.09985,-22.18301 -18.97802,-31.27729 -4.78598,-5.90318 -10.86773,-16.39601 -14.13267,-16.30483 -14.79769,0.41325 -26.88476,0.87815 -23.07413,-3.92702 1.97567,-2.49131 21.58825,-13.00156 23.13739,-21.41801 18.44165,-26.76657 -0.56148,-59.51104 -25.04731,-69.18612 -32.62776,-6.69717 -53.30284,0.62777 -67.30284,29.51105 -4.90537,15.78866 -2.78866,29.11671 7.9306,43.69717 10,11 22.76283,19.80609 41.9306,19.44164 3.53025,-0.0671 16.70041,-1.78066 23.18157,-3.11863 11.15844,-2.30354 12.16412,1.56618 2.37077,7.54277 -2.67352,1.63156 -6.62648,3.93964 -5.84147,5.02544 9.76572,13.50777 19.25431,28.38406 31.18187,42.96491 11.06021,13.52056 19.58597,23.29277 12.71517,27.71798 -2.60783,1.6796 -11.38812,4.13417 -15.60791,5.72872 -31,12 -90,5 -121,-14 z" />
	<!-- 		inkscape:connector-curvature="0"
			       sodipodi:nodetypes="cscccscscccsccsccccccccc" -->
				<path id="path20"
				d="M 834,522 C 770,482 760,457 760,349 v -99 h 30 30 v 75 c 0,116 37,164 109,139 37,-13 51,-49 51,-136 v -78 h 30 l 34.4261,-0.47481 -0.7037,70.21929 C 1042.9408,397.74056 1054,446 1080,460 c 32,17 70,11 95,-15 23,-22 25,-32 25,-110 v -85 h 36 l 30.0508,-0.47481 L 1268,343 c -3,74 -8,100 -26,129 -43,69 -130,88 -197,42 l -38,-25 -23,22 c -33,31 -109,37 -150,11 z" />
				<!-- inkscape:connector-curvature="0" sodipodi:nodetypes="cccccccscccccsccccc"  -->
				<path id="path22" 
			       d="M 1382.8653,514.78866 C 1331.2297,465.8714 1318.8403,466.58031 1319,294 l -0.6278,-159.23534 h 31.2556 33 L 1382.8653,208 c 0,81.77282 -7.7265,70.32805 55.2735,52.32805 48.5195,-4.47481 67.5452,2.56819 90.5203,16.47379 36.3361,21.99227 45.1323,28.70434 67.5018,84.75339 5.1609,34.8612 10.2334,39.04419 -5.6499,91.81701 -19.7002,37.93372 -18.8549,38.36599 -56.2333,64.76657 -35.1831,27.48896 -110.5291,29.67818 -151.4124,-3.35015 z M 1518,444 c 12,-14 17.7886,-34.15855 17.7886,-42.15855 C 1535.7886,371.84145 1516,341 1487,329 c -36,-15 -73,1 -97,44 -7.1347,20.84145 -7.1347,22.63006 0,54 19,33 51.6829,46.57721 78.6829,44.8943 C 1479.6829,468.8943 1505,457 1518,444 Z" />
			     <!-- inkscape:connector-curvature="0"  sodipodi:nodetypes="cscsccccssc" -->
			    <path id="path24"
			       d="m 1877,533 c -3.4297,-11.2643 -50.5494,-167.03004 -66.4419,-229.20726 -2.0796,-8.13608 -2.0473,-8.00312 -6.6969,-27.90945 l -4.8919,-26.16931 c 16.909,-0.18879 17.9822,-0.18879 32.4029,-0.18879 h 32.2556 L 1906,398 l 42,142 h -33 c -14.3082,0 -14.3966,-10e-6 -35.8127,-0.17003 0,0 -1.6934,-5.84223 -2.1873,-6.82997 z" />
			       <!-- inkscape:connector-curvature="0"
				sodipodi:nodetypes="cccscccsccccccccccccscccccccccccccccccccccccccccccccccccccccccccccccccccccccccccccccccccccccccccccccccccccccccccccccccccccccccccsccccccccccccccccccccccccccccccccccccccccccccccccccccccccccccccccccccccccccccccccccccccccccccccccccccccccccccccccccccccccccccccccc"  -->
			    <path
			       id="path26" transform="matrix(7.4999999,0,0,-7.4999999,0,820)" stroke-width='0.7'
			       d="M 319.19531,37.277344 C 315.98128,37.25293 312.73242,38.125 309.73242,40 c -6.26666,3.733333 -8.93164,8.666536 -8.93164,16.533203 -0.13333,12.8 8.19664,18.661409 23.34375,18.480469 4.26671,-0.05097 4.71293,-0.02539 9.70508,-0.02539 l 1.76367,-4.660156 1.26172,-3.742187 c -4.39472,-0.03554 -4.34341,0.08008 -10.74219,0.08008 -7.86666,0 -10.3987,-0.532183 -13.33203,-2.798828 -1.86667,-1.466667 -3.78379,-4.972753 -3.11719,-4.982422 l 14.98243,-0.21875 c 9.32808,-0.135318 12.54771,0.04769 12.97265,-2.873047 0.19799,-1.360814 0.77814,-3.450178 -0.70508,-6.458985 -3.75833,-7.608333 -10.66741,-12.002929 -17.73828,-12.05664 z m -1.80664,4.667968 c 0.24502,0.01227 0.48922,0.0073 0.73438,0.0059 0.18252,-4e-4 0.3663,1.33e-4 0.54883,0 0.18643,-2.67e-4 0.37196,-2.4e-5 0.55859,0 0.1368,5e-6 0.27531,-10e-7 0.41211,0 0.14148,3e-6 0.28233,0 0.42383,0 h 0.42187 0.41992 0.49219 0.64453 c 0.19519,-0.0084 0.28378,0.0031 0.47656,0.115234 0.009,0.0054 0.008,0.01331 0.0215,0.02344 0.12259,0.05907 0.25174,0.107179 0.37305,0.167968 0.0523,0.02623 0.0989,0.06 0.15234,0.08398 0.016,0.0072 0.036,0.0025 0.0527,0.0078 0.041,0.01288 0.0791,0.03137 0.11914,0.04687 0.0902,-0.0014 0.0681,0.0037 0.19141,0.06836 0.0135,-4.81e-4 0.0468,0.0087 0.14258,0.0625 0.052,0.02919 0.0967,0.06985 0.14453,0.105468 0.0369,0.03126 0.028,0.02755 0.0469,0.04492 0.0257,0.007 0.0851,0.03357 0.22266,0.111328 0.0795,0.0449 0.14352,0.11145 0.2207,0.160157 -0.0133,-0.01345 -0.0599,-0.03838 -0.041,-0.03906 0.044,-0.0016 0.0842,0.02669 0.12695,0.03711 0.23396,0.057 0.26977,0.141309 0.40039,0.326172 0.13963,0.07836 -0.0879,-0.09232 -0.0508,-0.107422 0.0198,-0.0081 0.22916,0.05917 0.25781,0.08008 0.0718,0.05237 0.13735,0.116335 0.20508,0.173828 0.008,0.01759 0.0151,0.0352 0.0234,0.05273 0.002,-0.0038 0.015,0.0054 0.0215,0.0098 0.0319,0.02168 0.0609,0.04816 0.0937,0.06836 0.005,0.0029 0.0211,0.0024 0.0176,-0.002 -0.009,-0.01104 -0.025,-0.01393 -0.0371,-0.02148 -0.006,-0.0028 -0.0239,-0.01 -0.0176,-0.0098 0.21987,0.02326 0.386,0.05338 0.55469,0.208984 0.0389,0.03591 0.0556,0.09007 0.084,0.134766 -0.0539,-0.110047 -0.0217,-0.02217 0.0156,-0.02539 0.01,-8.01e-4 -0.0132,-0.03146 -0.008,-0.0293 0.11888,0.02719 0.22486,0.100971 0.32422,0.166015 0.15989,0.149063 0.29,0.330572 0.45508,0.47461 0.002,2.25e-4 0.004,0.0036 0.006,0.0039 -0.006,-0.0073 -0.0131,-0.0172 -0.0195,-0.02539 0.0382,0.02766 0.13569,0.04151 0.11524,0.08398 0.12221,0.07976 0.25948,0.21895 0.32226,0.285156 0.18223,0.180036 0.0971,0.0931 0.0977,0.08398 0.1487,0.09183 0.16066,0.110629 0.28711,0.22461 0.0166,0.0086 0.0326,0.01604 0.0488,0.02539 0.12802,0.07397 0.0873,0.06072 0.20508,0.195313 0.003,0.0019 0.006,0.0039 0.01,0.0059 l 0.002,0.002 c 0.10339,0.06192 0.18216,0.150078 0.26954,0.234375 0.004,0.0039 -0.004,-0.01918 0,-0.01563 0.10086,0.08378 0.10213,0.09779 0.16992,0.19336 -0.0977,-0.127724 -0.0507,-0.05853 0.0645,0.04297 0.0186,0.01637 -0.0752,-0.05082 -0.0508,-0.05469 0.0304,-0.0048 0.0532,0.03067 0.0781,0.04883 0.0379,0.02762 0.0781,0.05297 0.10938,0.08789 0.0476,0.05324 0.0834,0.117689 0.125,0.175781 0,-0.0018 -0.0127,-0.02725 0.006,-0.01563 0.14261,0.100457 0.19435,0.208456 0.27148,0.324219 -0.008,-0.01931 -0.0385,-0.07048 -0.0215,-0.05859 0.0436,0.03055 0.0693,0.07996 0.10742,0.117187 0.004,0.0041 -0.01,-0.0198 -0.006,-0.01563 0.10469,0.105338 0.16913,0.206788 0.24024,0.330078 0.018,0.01017 0.0251,0.0076 0.0351,0.01563 0.16398,0.129979 0.1549,0.133544 0.23828,0.271484 10e-4,0.0089 0.041,0.106515 0.0762,0.193359 0.0425,0.03657 0.083,0.0742 0.125,0.111328 0.116,0.166286 0.0438,0.04578 0.14062,0.273438 0.0101,0.02394 -0.0523,-0.07955 -0.0273,-0.07227 0.031,0.009 0.036,0.05377 0.0547,0.08008 0.005,0.0072 0.0116,0.01304 0.0176,0.01953 l 0.0742,0.146484 c 0.0204,0.08345 0.008,0.04209 0.0156,0.07617 0.008,0.01144 0.0168,0.0195 0.0215,0.03125 0.008,0.01911 0.01,0.03936 0.0195,0.05859 0.0156,0.02068 0.0312,0.04335 0.0469,0.06445 0.0874,0.14102 0.11824,0.304183 0.1875,0.453125 0.003,0.0059 0.0131,-0.0069 0.0195,-0.0078 0.0953,0.129423 0.12642,0.147426 0.15234,0.326172 0.0226,0.01296 0.0429,0.02274 0.0488,0.01953 0.006,0.01758 0.0121,0.03276 0.0254,0.05273 0.009,0.02363 0.0127,0.0275 0.0195,0.05859 0,0.0017 -0.01,-0.0023 -0.004,0.0039 0.0275,0.06954 -0.0162,-0.07332 0.0254,0.07227 -0.002,0.02354 0.003,0.04472 0.006,0.06641 v 0.002 c 6.3e-4,0.0044 -9.7e-4,0.0091 0,0.01367 0.003,0.02086 -2.4e-4,0.0018 0.002,0.01758 -0.0129,-0.02728 -0.0174,-0.02259 0.0117,0.0078 0.0344,0.05649 0.0343,0.06162 0.0332,0.115235 7.7e-4,0.02483 -8.5e-4,0.04942 -0.002,0.07422 0.0133,0.0306 0.0167,0.06291 -0.008,0.103516 -0.002,0.0034 -0.002,0.01101 -0.006,0.0098 -0.003,-0.0012 -0.007,-0.0025 -0.01,-0.0039 0.0145,0.04061 0.0352,0.114316 0.0449,0.152344 0.0112,0.0345 0.007,0.292329 -0.008,0.320313 -0.053,0.09794 -0.10266,0.20094 -0.17774,0.283203 -0.0354,0.03882 0,-2e-6 -0.14257,0.06836 0,0 -0.14108,-0.111726 -0.25977,-0.128906 -0.0939,-0.0136 -0.22342,0.116391 -0.24023,0.08789 h -0.0156 c -0.0354,0.002 -0.0726,-0.0084 -0.10547,-0.02148 -0.0131,-0.0052 -0.0244,-0.01159 -0.0371,-0.01758 -0.0105,-0.0049 -0.007,-0.0017 -0.008,-0.002 -0.0378,0.01089 -0.0781,-0.0054 -0.11523,-0.01172 -0.0305,-0.0052 -0.0281,-0.0037 -0.0566,-0.0039 -0.045,0.0022 -0.0897,0.0035 -0.13477,0.0039 -0.0286,2.83e-4 -0.0476,-0.0082 -0.0645,-0.01758 h -0.11133 -0.41211 -0.50586 -0.43359 -0.54297 c -0.14031,0 -0.28158,-9e-6 -0.42188,0 -0.14198,1.7e-5 -0.28379,1.04e-4 -0.42578,0 -0.14491,0 -0.29063,6.03e-4 -0.43555,0 -0.17872,-9.33e-4 -0.35653,-0.0042 -0.53515,0.0039 -0.16728,-0.0015 -0.3332,-0.03866 -0.5,-0.01367 -0.0962,0.0221 -0.34457,-0.01861 -0.42774,-0.0078 -0.12084,0.01575 -0.2809,-0.01112 -0.40234,0 h -0.625 -0.64648 -0.58594 l -0.47461,0.08789 h -0.57031 -0.63086 -0.63086 -0.67188 -0.5 -0.49609 -0.49609 -0.56446 -0.38476 -0.57618 -0.58007 -0.63086 -0.42188 -0.52734 -0.52539 -0.42774 -0.39843 -0.57618 -0.39648 -0.65625 -0.41797 -0.8125 c -0.36318,1e-6 -0.5321,-0.191621 -0.51562,-0.375 -0.15413,-0.04705 -0.28249,-0.233402 -0.25196,-0.552734 0.0133,-0.138827 0.0559,-0.532144 0.17774,-0.636719 0.0183,-0.01576 0.0418,-0.02461 0.0625,-0.03711 -7.1e-4,0.0015 3.4e-4,0.0092 -0.002,-0.02148 -0.001,-0.01921 -1.7e-4,-0.0354 0.004,-0.05273 7.3e-4,-0.0051 -10e-4,-0.01013 0,-0.01563 0.004,-0.02282 -0.002,-0.02175 0.008,-0.02148 0.002,-0.01453 -0.001,-0.02795 0.01,-0.04687 6.5e-4,-0.0012 3.5e-4,-0.0027 0.002,-0.0039 l 0.002,-0.002 v -0.002 c 0.014,-0.106755 0.0505,-0.228996 0.0801,-0.289062 0.0193,-0.0363 0.0394,-0.073 0.0586,-0.109375 0.024,-0.04549 0.0492,-0.08986 0.0703,-0.136719 0.009,-0.02741 0.0182,-0.05462 0.0273,-0.08203 -0.004,-0.0011 -0.01,0.0015 -0.01,-0.002 0.08,-0.199984 0.0501,-0.160181 0.13281,-0.251953 -0.22944,0.406718 0.0403,-0.146725 0.0684,-0.203125 0.006,-0.0128 0.015,-0.02677 0.0137,-0.04102 -10e-4,-0.0091 -0.0102,0.01418 -0.0156,0.02148 -0.003,0.0055 -0.01,0.02346 -0.008,0.01758 0.17123,-0.561429 0.0109,-0.144816 0.125,-0.324218 0.008,-0.01311 0.01,-0.02885 0.0195,-0.04102 0.11705,-0.147402 0.0944,-0.112681 0.0996,-0.117187 0.005,-0.02814 0.0127,-0.05785 0.0254,-0.08398 0.0982,-0.201306 0.12054,-0.178786 0.26563,-0.345703 0.025,-0.02876 -0.0575,0.05079 -0.0859,0.07617 0.0278,-0.04315 0.0579,-0.08668 0.084,-0.130859 0.002,-0.0039 -0.014,0.01201 -0.0117,0.0078 0.0195,-0.03541 0.0453,-0.06787 0.0645,-0.103516 0.001,-0.0024 -0.007,-0.0036 -0.006,-0.0059 0.0822,-0.114062 0.0815,-0.10703 0.082,-0.111328 0.0245,-0.09402 0.0909,-0.264609 0.11719,-0.294922 0.0787,-0.09067 0.0638,-0.0613 0.0957,-0.0918 10e-4,-0.0019 0.002,-0.004 0.004,-0.0059 0.0168,-0.02097 0.0317,-0.04227 0.0469,-0.0625 0.056,-0.100523 0.0866,-0.157941 0.14258,-0.257813 0.0478,0.05088 0.12879,-0.102482 0.21094,-0.193359 -0.002,-2.57e-4 -0.005,1.78e-4 -0.008,0 0.0657,-0.188796 0.0259,-0.109226 0.16797,-0.314453 0.0125,-0.01811 0.0232,-0.03979 0.041,-0.05273 0.067,-0.04868 0.14386,-0.08223 0.21094,-0.13086 0.0334,-0.02423 -0.0701,0.05204 -0.11133,0.05469 0.13636,-0.191623 0.17516,-0.278551 0.39063,-0.398438 0.0606,-0.07495 0.13663,-0.114867 0.21484,-0.171875 0.0144,-0.01053 -0.0601,0.03934 -0.0469,0.02734 0.0644,-0.05831 0.0984,-0.07879 0.15821,-0.119141 0.0725,-0.07809 0.16285,-0.110851 0.25781,-0.136718 0.0136,-0.01897 0.0255,-0.03918 0.041,-0.05664 0.0261,-0.02938 0.0613,-0.04946 0.0918,-0.07422 0.0476,-0.03865 0.0872,-0.0849 0.13672,-0.121094 0.0711,-0.05199 0.14175,-0.09032 0.2168,-0.132812 0.0194,-0.0068 0.0424,-0.02067 0.0625,-0.0332 0.0923,-0.0958 0.0995,-0.07904 0.33594,-0.1875 -0.0249,-0.02766 -0.0137,-0.03668 0.0391,-0.05273 0.11185,-0.128699 0.0985,-0.120141 0.23242,-0.205078 0.0276,-0.01011 0.0545,-0.02115 0.082,-0.03125 -0.009,-0.02926 0.0479,-0.0393 0.0762,-0.05078 0.0515,-0.02089 0.10395,-0.03681 0.15821,-0.04883 0.14218,-0.144746 0.23564,-0.09315 0.42602,-0.113465 0.0724,-0.003 0.28362,-0.09549 0.35523,-0.08966 0.002,-0.0018 0.002,-0.008 0.004,-0.0098 -0.005,-6.41e-4 0.004,-0.01512 0.0137,-0.01953 0.0653,-0.06893 0.14909,-0.113155 0.26954,-0.113281 0.0226,-0.0077 0.0448,-0.01713 0.0684,-0.02148 0.0473,-0.0088 0.0997,-0.02299 0.14843,-0.02539 0.0875,-0.05728 0.12513,-0.0733 0.23828,-0.101563 0.14321,-0.06545 0.28514,-0.07433 0.44336,-0.07227 0.006,-0.0059 0.01,-0.01492 0.0176,-0.01758 0.0403,-0.0136 0.0829,-0.017 0.12305,-0.03125 0.0111,-0.0039 -0.15075,0.0547 -0.14065,0.04883 0.0519,-0.03 0.31548,-0.15724 0.36327,-0.183591 0.13192,-0.02729 0.17574,-0.0346 0.24609,-0.03125 0.092,-0.05234 0.21775,-0.117169 0.25586,-0.136719 0.0806,-0.02634 0.15921,-0.06043 0.24219,-0.07813 0.0804,-0.01713 0.57845,-0.04764 0.66015,-0.05664 0.14105,-0.01558 -0.14222,-0.0027 0,0 z m 5.04297,0.09375 c 0.026,0.01674 0.0566,0.02502 0.084,0.03906 -0.004,-0.0041 -0.007,-0.0086 -0.0117,-0.01172 -0.0212,-0.01421 -0.0484,-0.01839 -0.0723,-0.02734 z m 7.93555,7.320313 c 2.2e-4,0.0035 -5.7e-4,0.01165 0,0.01172 0.001,0.01282 -0.003,0.02885 -0.002,0.04492 0.004,-0.0054 0.008,-0.0092 0.0117,-0.01367 0.007,-0.0094 0.01,-0.01861 0.0117,-0.0332 -0.007,-0.0035 -0.0144,-0.0064 -0.0215,-0.0098 z m -0.12696,0.162109 c -0.002,0.0075 -0.002,0.0058 -0.004,0.01367 0.001,0.0059 0.003,0.01168 0.004,0.01758 0.002,0.0023 0.0152,-0.01897 0.0195,-0.02148 -0.006,-0.0045 -0.0135,-0.0051 -0.0195,-0.0098 z" />
			       <!-- inkscape:connector-curvature="0" sodipodi:nodetypes="sccccccss" -->
				<path id="path28"
				d="m 2060.4226,200.28386 c 0,0 3.7224,16.00625 -8.6056,-31.90538 l -8.2334,-33.61382 208.1609,0 L 2464,135 l 13,33 13.3722,33.09414 L 2270,200 c -74.1045,-0.36793 -209.5428,0.32053 -209.5774,0.28386 z" />
				<!-- inkscape:connector-curvature="0" sodipodi:nodetypes="ccscscsscc" stroke="#e74c3c" -->
				<path id="path26-4" 
				d="m 1910.9167,657.79171 c -8.571,-8.12159 -9.1253,-7.22997 -15.4104,-17.71113 -3.3689,-13.65949 -2.8204,-22.69275 2.4055,-29.83168 10.4495,-14.27458 13.3367,-14.76408 31.5491,-19.87897 9.9461,0 10.0896,-0.99914 21.2807,3.18741 8.6725,3.24433 12.4618,7.46213 14.1758,9.51719 2.7763,2.30817 8.0626,12.96363 8.0447,21.64334 -0.021,9.96295 1.0762,13.19928 -7.9201,23.67237 -8.5013,9.89684 -9.1127,10.87786 -27.2275,14.51526 -16.6247,-0.52574 -16.3353,-0.0695 -26.8978,-5.11379 z"/>
				</g>
				</svg>