<svg
 xmlns="http://www.w3.org/2000/svg"
 width="255"
 height="82"
 viewBox="0 0 255.000000 82.000000"
 preserveAspectRatio="xMidYMid meet"
 id="svg32"
 >
 <style>
  #path12, #path16, #path24, #path26, #path26-4, #path28{
  stroke: #e74c3c;
  }
  #g30{
  transform: translate(0px, 82px) scale(0.1,-0.1);
  fill: none;
  stroke-width: 5; 
  stroke-linecap: round;
  stroke-linejoin: round; 
  stroke: #000;
  }
</style>
<defs id="defs36"/>
<g
 transform="translate(0.000000,82.000000) scale(0.100000,-0.100000)"
 fill="#000000"
 stroke="none"
 id="g30">
 <path id="path12"
   d="m 1790,767 c 0,0 -34,-104 -76,-228 -42,-123 -77,-240 -77,-261 0,-51 37,-106 87,-129 29,-13 65.2194,-13.02485 123.1657,-15.51971 l 82.4916,1.28437 v 0 c 21.8343,70.80612 19.4935,65.31151 20.177,66.04146 0,0 -37.8343,-0.80612 -83.8343,-0.80612 -98,0 -128,9 -152,45 -17,26 -16,31 61,263 43,130 80,243 82,250 l 2.4989,9.11957 c -18.1624,0.43579 -18.1541,0.83312 -33.3128,0.83312 -20,0 -19.8076,-0.39733 -36.1861,-0.95269 z" />
   <path id="path14"
     d="M 134,637 C 45,594 -11,494 10,412 27,344 66,294 123,265 c 89,-44 179,-26 247,51 l 17.45868,27.7497 16.54132,36.3056 -31.73302,0.65142 c -17.47672,0 -17.07294,0 -41.11517,-0.83057 L 311.05262,355.94301 C 288.49264,334.52946 268.45941,317.87882 225.85625,314.83643 153.50905,309.66994 80,364.43005 80,452 c 0,87 86,151 172,128 20,-6 56.26631,-32.00001 63.26631,-40.00001 0,0 14.73369,10e-6 41.73369,10e-6 l 41.36788,-10e-6 L 380,570 c -24.26218,44.2114 -97,79 -151,85 -33.25552,2.76657 -56,0 -95,-18 z" />
     <path id="path16"
       d="m 2146,585 c -50,-17 -74,-42 -91,-91 -6.773,-20.31892 -14.6061,-47.42763 -14.6061,-47.42763 l -62.1324,-0.62902 -17.6962,-65.88805 60.9059,0.17813 -100.3899,-333.374379 v 0 c 0,0 41.6108,-0.0073 72.6078,-0.0073 0,0 1.0995,0 46.3109,154.148219 55.1167,179.16715 55.1167,179.16715 55.1167,179.16715 l 121.5822,-0.1119 23.6733,66.35263 -63.9035,0.0558 c -65.634,0.0573 -0.4687,0 -66.0988,-0.71877 0,0 4.9026,17.69036 6.6301,24.25503 9,36 47.3221,65.29508 99.2776,67.44477 l 44.9936,1.86163 18.7288,52.42603 c 0,0 -83.3038,2.55785 -134,-6.73243 z" />
       <path id="path18"
         d="m 493,520 c -42,-25 -61,-56 -66,-105 -5.3928,-29.88801 1.09747,-60.51591 1.09747,-60.51591 9.41472,2.42873 9.06443,2.72755 9.06443,2.72755 0,0 -0.47822,1.09447 -1.57497,8.20814 -1.17284,7.60724 -3.58795,15.9053 -2.63772,21.79164 2.04142,12.64587 16.89453,13.06503 30.28412,18.37743 25.89497,10.274 27.06937,10.45587 30.00232,1.66259 6.23699,-18.69914 6.04452,-17.50414 10.76435,-27.19614 3.2907,-9.72361 3.13355,-9.98106 6.87388,-22.85695 0,0 -14.33763,-11.98509 -22.87388,-17.19835 -28.23949,-17.24641 -31.54169,-18.22609 -44.3208,6.0783 -6.42942,12.22801 -6.47919,11.05089 -6.47919,11.05089 1.75193,0.44652 -9.10254,-2.6451 -9.10254,-2.6451 0,0 14.69113,-39.22191 36.69113,-60.22191 C 500.7886,258.26218 512,260 563,260 c 48,0 61,4 91,30 37,33 60.52642,89.42176 53.52642,125.42176 -0.43429,9.79562 -5.71107,25.70333 -8.35431,31.934 -6.1515,14.50041 -11.21317,7.32758 -2.12029,-31.1423 0.0529,-36.15816 -0.94715,-36.15816 -29.84146,-36.15816 -31.89327,0 -31.8943,-0.52888 -39.8943,32.47112 -8.15855,24.63213 -8.36994,21.314 21.94715,45.15752 l 22.78092,14.74898 14.3766,-18.85468 C 694.50232,437.09498 692.02916,446.01563 699,447 c 1,7 -14.57828,28.27942 -29,45 -15.32308,16.72058 -30.22171,28.70804 -33.36065,31.33122 l -9.06332,-9.86977 c 0.39077,-0.4565 5.0883,-1.80771 15.97508,-14.87908 0,0 -15.11458,-23.16316 -20.99275,-32.25744 -4.78598,-5.90318 -10.86773,-16.39601 -14.13267,-16.30483 -8.17938,0.22842 -16.86371,2.56141 -16.86371,2.56141 -3.50887,-3.71244 -3.52871,-3.70927 -6.37615,-6.69559 0,0 20.05476,-12.61862 23.30312,-21.21085 15.39478,-23.54391 -0.56148,-59.51104 -25.04731,-69.18612 -32.62776,-6.69717 -53.30284,0.62777 -67.30284,29.51105 -4.90537,15.78866 -2.78866,29.11671 7.9306,43.69717 10,11 22.76283,19.80609 41.9306,19.44164 3.53025,-0.0671 19.21938,-2.24181 19.21938,-2.24181 6.25512,6.59842 6.33296,6.66595 6.33296,6.66595 -6.63369,3.95095 -6.62648,3.93964 -5.84147,5.02544 9.76572,13.50777 19.25431,28.38406 31.18187,42.96491 8.69442,10.62849 8.68639,10.60946 19.74661,22.77792 0,0 -6.53865,3.85614 -7.96894,4.88147 C 626.14937,530.01995 618.21979,532.40545 614,534 c -31,12 -90,5 -121,-14 z" />
         <path id="path20" 
           d="M 834,522 C 770,482 760,457 760,349 v -99 h 30 30 v 75 c 0,116 37,164 109,139 37,-13 51,-49 51,-136 v -78 h 30 l 34.4261,-0.47481 -0.7037,70.21929 C 1042.9408,397.74056 1054,446 1080,460 c 32,17 70,11 95,-15 23,-22 25,-32 25,-110 v -85 h 36 l 30.0508,-0.47481 L 1268,343 c -3,74 -8,100 -26,129 -43,69 -130,88 -197,42 l -38,-25 -23,22 c -33,31 -109,37 -150,11 z" />
           <path id="path22"
             d="M 1382.8653,514.78866 C 1331.2297,465.8714 1318.8403,466.58031 1319,294 l -0.6278,-159.23534 h 31.2556 33 L 1382.8653,208 c 0,81.77282 -7.7265,70.32805 55.2735,52.32805 48.5195,-4.47481 67.5452,2.56819 90.5203,16.47379 36.3361,21.99227 45.1323,28.70434 67.5018,84.75339 5.1609,34.8612 10.2334,39.04419 -5.6499,91.81701 -19.7002,37.93372 -18.8549,38.36599 -56.2333,64.76657 -35.1831,27.48896 -110.5291,29.67818 -151.4124,-3.35015 z M 1518,444 c 12,-14 17.7886,-34.15855 17.7886,-42.15855 C 1535.7886,371.84145 1516,341 1487,329 c -36,-15 -73,1 -97,44 -7.1347,20.84145 -7.1347,22.63006 0,54 19,33 51.6829,46.57721 78.6829,44.8943 C 1479.6829,468.8943 1505,457 1518,444 Z" />
             <path id="path24"
               d="m 1798.9693,249.71398 64.6585,0.20408 v 0 L 1948,540 l -68.1807,-0.0293 z" />
               <path id="path26"
                 transform="matrix(7.4999999,0,0,-7.4999999,0,820)"
                 stroke-width='0.7'
                 d="M 319.19531,37.277344 C 315.98128,37.25293 312.73242,38.125 309.73242,40 c -6.26666,3.733333 -8.93164,8.666536 -8.93164,16.533203 -0.13333,12.8 8.19664,18.661409 23.34375,18.480469 4.26671,-0.05097 4.71293,-0.02539 9.70508,-0.02539 l 1.76367,-4.660156 1.26172,-3.742187 c -4.39472,-0.03554 -4.34341,0.08008 -10.74219,0.08008 -7.86666,0 -10.3987,-0.532185 -13.33203,-2.798828 -1.86667,-1.466667 -3.94004,-5.198228 -3.27344,-5.207897 l 15.13868,0.0067 c 9.32808,-0.135318 12.54771,0.04769 12.97265,-2.873047 0.19799,-1.360814 0.77814,-3.450178 -0.70508,-6.458985 -3.75833,-7.608333 -10.66741,-12.002929 -17.73828,-12.05664 z m 2.83989,4.878906 c 1.05539,0.194643 0.97823,0.195614 1.67187,0.488281 0.50591,0.263787 0.55385,0.274233 1.13281,0.59375 0.70287,0.387901 0.88955,0.433917 1.86328,1.244141 1.10884,0.911532 1.18802,0.999687 1.2754,1.083984 0.004,0.0039 -0.004,-0.01918 0,-0.01563 0.10086,0.08378 0.10192,0.09719 1.06013,1.341886 0.95822,1.244696 1.07782,1.40719 1.28802,1.908114 0.16604,0.365585 0.14407,0.3135 0.17178,0.650019 -0.0692,0.252938 -0.0707,0.233516 -0.23993,0.413788 -0.22094,0.05724 -0.19896,0 -10.77428,0 -10.4934,0 -10.50367,0 -10.53888,-0.628238 0.0133,-0.138827 0.0548,-0.532969 0.37608,-1.230025 0.32128,-0.697056 0.32948,-0.711024 0.80824,-1.566173 0.47876,-0.855149 0.60242,-1.069776 1.49699,-1.911205 0.89457,-0.841428 0.96651,-0.879137 1.74643,-1.2633 0.77992,-0.384162 0.98992,-0.47618 1.64453,-0.669922 0.65461,-0.193742 0.91777,-0.320783 2.3789,-0.482422 1.62003,-0.262476 3.02585,-0.170863 4.63863,0.04295 z" />
                 <path id="path28"
                   d="m 2060.4226,200.28386 c 0,0 3.7224,16.00625 -8.6056,-31.90538 l -8.2334,-33.61382 208.1609,0 L 2464,135 l 13,33 13.3722,33.09414 L 2270,200 c -74.1045,-0.36793 -209.5428,0.32053 -209.5774,0.28386 z" />
                   <path id="path26-4" stroke-width='5'
                     d="m 1904.5646,615.88086 c -6.4603,-6.70839 -6.878,-5.97191 -11.6152,-14.62927 -2.5393,-11.28264 -2.1259,-18.74404 1.8131,-24.64075 7.876,-11.7907 10.0521,-12.19503 23.7794,-16.41989 7.4966,0 7.6048,-0.82528 16.0399,2.63279 6.5366,2.67978 9.3927,6.16366 10.6847,7.86112 2.0925,1.90653 6.077,10.70786 6.0635,17.87725 -0.015,8.22932 0.8111,10.90251 -5.9696,19.5532 -6.4078,8.17472 -6.8686,8.98503 -20.5221,11.98949 -12.5306,-0.43425 -12.3124,-0.0574 -20.2737,-4.22394 z" />
                   </g>
                 </svg>
